<?xml version="1.0" encoding="utf-8"?>
<!-- Generator: Adobe Illustrator 15.0.0, SVG Export Plug-In . SVG Version: 6.00 Build 0)  -->
<!DOCTYPE svg PUBLIC "-//W3C//DTD SVG 1.1//EN" "http://www.w3.org/Graphics/SVG/1.1/DTD/svg11.dtd">
<svg version="1.1" xmlns="http://www.w3.org/2000/svg" xmlns:xlink="http://www.w3.org/1999/xlink" x="0px" y="0px" width="1800px"
	 height="1800px" viewBox="0 0 1800 1800" enable-background="new 0 0 1800 1800" xml:space="preserve">
<g id="box" display="none">
	
		<rect x="395.002" y="545.001" display="inline" fill="#FFFFFF" stroke="#0C456F" stroke-width="9" stroke-linejoin="bevel" stroke-miterlimit="10" width="944" height="354.999"/>
</g>
<g id="Guides" display="none">
</g>
<g id="Color">
	<g id="Blue_ext._flagellum__x3C_Group_x3E_">
		<linearGradient id="SVGID_1_" gradientUnits="userSpaceOnUse" x1="670.8604" y1="666.7236" x2="1069.9111" y2="666.7236">
			<stop  offset="0.227" style="stop-color:#28AAE2"/>
			<stop  offset="1" style="stop-color:#28AAE2;stop-opacity:0"/>
		</linearGradient>
		<path fill="url(#SVGID_1_)" d="M857.29,696.632c-17.111,0-38.085-4.453-63.567-16.897c-64.163-31.335-120.373-8.237-120.932-7.999
			c-0.708,0.298-1.521-0.032-1.82-0.738s0.032-1.521,0.738-1.82c0.586-0.248,14.609-6.094,36.906-8.079
			c20.558-1.832,52.219-0.516,86.326,16.141c72.64,35.474,107.623,4.71,120.793-6.871c1.01-0.888,1.904-1.675,2.692-2.328
			c0.516-0.429,1.068-0.893,1.656-1.387c16.909-14.203,61.819-51.937,149.016-12.117c0.697,0.319,1.005,1.143,0.687,1.841
			c-0.319,0.698-1.142,1.004-1.841,0.687c-85.592-39.091-129.532-2.18-146.074,11.717c-0.594,0.498-1.149,0.965-1.67,1.396
			c-0.77,0.64-1.645,1.409-2.632,2.276C908.666,680.281,890.07,696.631,857.29,696.632L857.29,696.632z"/>
		<linearGradient id="SVGID_2_" gradientUnits="userSpaceOnUse" x1="630.0723" y1="645.7666" x2="1253.1025" y2="645.7666">
			<stop  offset="0.227" style="stop-color:#28AAE2"/>
			<stop  offset="1" style="stop-color:#28AAE2;stop-opacity:0"/>
		</linearGradient>
		<path fill="url(#SVGID_2_)" d="M827.38,671.243c-16.177,0-35.941-2.768-58.727-11.139c-73.662-27.069-136.138,5.314-136.76,5.646
			c-0.604,0.318-1.354,0.091-1.677-0.515c-0.32-0.604-0.091-1.355,0.515-1.677c0.158-0.084,16.136-8.464,41.091-13.317
			c23.023-4.479,58.658-6.806,97.687,7.535c38.397,14.106,68.022,12.075,86.11,7.885c19.595-4.538,30.26-12.514,30.365-12.594
			c0.337-0.225,27.193-17.593,69.128-26.928c38.697-8.616,98.56-11.983,163.974,20.897c70.845,35.612,131.745,14.164,132.352,13.943
			c0.642-0.233,1.355,0.097,1.59,0.741c0.234,0.643-0.097,1.354-0.74,1.589c-0.154,0.057-15.745,5.649-39.966,6.683
			c-22.318,0.946-56.817-1.874-94.349-20.74c-64.762-32.552-124.017-29.222-162.321-20.692
			c-41.498,9.237-67.976,26.359-68.238,26.531c-0.371,0.287-11.024,8.277-31.086,12.951
			C848.646,669.833,838.927,671.243,827.38,671.243L827.38,671.243z"/>
		<linearGradient id="SVGID_3_" gradientUnits="userSpaceOnUse" x1="625.0947" y1="669.5205" x2="1150.2705" y2="669.5205">
			<stop  offset="0.227" style="stop-color:#28AAE2"/>
			<stop  offset="1" style="stop-color:#28AAE2;stop-opacity:0"/>
		</linearGradient>
		<path fill="url(#SVGID_3_)" d="M993.345,698.155c-37.882,0.001-76.617-9.63-104.008-26.572
			c-0.229-0.159-16.741-11.693-42.257-17.416c-23.501-5.271-59.688-6.546-98.641,17.307c-39.734,24.332-71.023,22.99-90.278,17.582
			c-20.923-5.879-32.243-17.389-32.715-17.875c-0.479-0.496-0.467-1.287,0.028-1.768c0.497-0.479,1.288-0.469,1.768,0.027
			c0.111,0.115,11.409,11.571,31.729,17.245c18.752,5.234,49.266,6.476,88.162-17.345c39.709-24.315,76.622-22.988,100.598-17.59
			c25.974,5.846,42.819,17.63,42.986,17.748c33.423,20.672,84.159,30.301,129.199,24.488c54.486-7.03,110.944-39.229,128.334-52.838
			c0.544-0.424,1.332-0.329,1.755,0.214c0.426,0.544,0.33,1.329-0.214,1.755c-17.56,13.741-74.56,46.253-129.555,53.35
			C1011.436,697.604,1002.411,698.155,993.345,698.155L993.345,698.155z"/>
	</g>
	
		<linearGradient id="Bacteria__x3C_Path_x3E__2_" gradientUnits="userSpaceOnUse" x1="-3043.1094" y1="1137.8662" x2="-2818.8086" y2="1137.8662" gradientTransform="matrix(-1 0 0 -1 -2364.0293 1805.2578)">
		<stop  offset="0" style="stop-color:#21A8C8"/>
		<stop  offset="1" style="stop-color:#0C456F"/>
	</linearGradient>
	<path id="Bacteria__x3C_Path_x3E__1_" fill="url(#Bacteria__x3C_Path_x3E__2_)" d="M631.312,623.503
		c26.381,0,47.768,19.649,47.768,43.888l0,0c0,24.238-21.387,43.889-47.768,43.889H502.548c-26.382,0-47.769-19.65-47.769-43.889
		l0,0c0-24.238,21.387-43.888,47.769-43.888H631.312z"/>
	<g id="Blue_int._flagellum__x3C_Group_x3E_">
		<path fill="#21A8C8" d="M661.842,701.157c-21.282-8.576-41.841-24.442-65.236-36.75c-37.708-19.838-91.204-3.911-130.615,29.839
			l-0.686,0.654c-1.188-1.344-2.906-3.625-3.641-4.797l0.761-0.679c40.502-33.892,96.22-46.627,135.363-25.55
			c22.066,11.881,43.571,27.938,66.244,35.433C663.606,699.781,662.57,700.525,661.842,701.157z"/>
		<path fill="#21A8C8" d="M674.327,685.814c-29.088,8.17-61.132,7.228-92.952-10.771c-35.757-20.222-63.768-42.555-95.39-48.849
			c-5.734,1.935-9.883,4.667-9.883,4.667c35.708,1.093,65.429,22.605,104.864,44.91c31.35,17.73,62.768,20.168,91.551,13.365
			C672.751,689.064,674.877,686.048,674.327,685.814z"/>
	</g>
	<g id="White_int._flagellum__x3C_Group_x3E__1_">
		<path fill="#FFFFFF" d="M671.469,691.681l-2.643,2.947c-0.333-0.064-0.674-0.134-1.022-0.208
			c-27.542-5.854-51.747-25.771-80.925-41.121c-37.318-19.632-90.099-4.237-129.387,28.796c-1.734-4.199-1.822-6.206-1.822-6.206
			c40.223-32.063,94.197-43.689,132.392-23.123c27.195,14.645,52.733,34.82,81.833,38.682
			C670.283,691.498,671.106,691.625,671.469,691.681z"/>
		<path fill="#FFFFFF" d="M679.197,669.504c-33.682,13.43-69.877,15.738-107.549-5.568c-26.061-14.739-48.006-30.599-70.234-40.553
			c-5.608-0.106-8.531,0.904-8.531,0.904c25.051,7.648,49.047,23.799,78.357,40.377c38.008,21.498,74.238,20.814,108.432,8.01
			C680.636,672.468,680.636,669.754,679.197,669.504z"/>
	</g>
	<g id="PATRIC">
		<path fill="#0C456F" d="M711.465,593.817h37.079c18.359,0,26.999,2.88,34.379,7.74c9.899,6.659,16.559,17.999,16.559,32.039
			c0,14.039-6.659,25.379-16.559,32.038c-7.38,4.86-16.02,7.739-34.379,7.739h-23.759v53.639h-13.32V593.817z M724.785,661.315
			h19.259c14.22,0,19.079,0,26.639-3.42c10.439-4.86,15.479-14.22,15.479-24.299c0-10.08-5.04-19.439-15.479-24.3
			c-7.56-3.42-12.419-3.42-26.639-3.42h-19.259V661.315z"/>
		<path fill="#0C456F" d="M843.085,593.817h14.938l57.238,133.195h-14.579l-19.26-44.818h-61.917l-19.439,44.818h-13.859
			L843.085,593.817z M824.545,670.135h51.658l-25.559-61.198L824.545,670.135z"/>
		<path fill="#0C456F" d="M940.838,605.877h-30.599v-12.06h74.337v12.06h-30.419v121.136h-13.319V605.877z"/>
		<path fill="#0C456F" d="M998.438,593.817h33.839c17.819,0,26.639,2.16,32.758,5.04c14.939,7.02,23.76,21.599,23.76,37.979
			c0,19.259-13.859,38.878-39.599,40.498l37.618,49.679h-16.739l-45.178-60.298c16.919,0,22.679-0.181,28.618-1.979
			c14.58-4.141,21.96-16.38,21.96-28.26c0-10.439-5.94-21.238-14.58-25.559c-7.919-4.14-14.759-5.04-25.919-5.04h-23.219v121.136
			h-13.319V593.817z"/>
		<path fill="#0C456F" d="M1108.776,593.817h13.319v133.195h-13.319V593.817z"/>
		<path fill="#0C456F" d="M1274.551,692.094c-14.22,26.099-39.958,37.259-61.378,37.259c-37.258,0-69.657-29.34-69.657-68.758
			s31.499-68.938,69.478-68.938c34.198,0,55.798,23.939,61.018,36.359h-14.939c-14.579-21.779-38.158-24.299-46.258-24.299
			c-31.139,0-55.978,27.358-55.978,57.057c0,31.139,27.358,56.518,56.157,56.518c6.66,0,28.438-0.899,46.618-25.198H1274.551z"/>
	</g>
	<g id="tagline">
		<path fill="#21A8C8" d="M712.159,744.472h4.532c2.244,0,3.301,0.352,4.203,0.945c1.21,0.814,2.024,2.201,2.024,3.918
			c0,1.715-0.814,3.102-2.024,3.916c-0.902,0.594-1.959,0.945-4.203,0.945h-2.904v6.558h-1.628V744.472z M713.787,752.723h2.354
			c1.738,0,2.332,0,3.257-0.418c1.275-0.595,1.892-1.738,1.892-2.97c0-1.232-0.616-2.377-1.892-2.971
			c-0.925-0.418-1.519-0.418-3.257-0.418h-2.354V752.723z"/>
		<path fill="#21A8C8" d="M731.915,744.472h1.826l6.997,16.282h-1.782l-2.354-5.479h-7.568l-2.377,5.479h-1.694L731.915,744.472z
			 M729.649,753.801h6.314l-3.124-7.481L729.649,753.801z"/>
		<path fill="#21A8C8" d="M746.017,745.946h-3.74v-1.475h9.088v1.475h-3.719v14.808h-1.629V745.946z"/>
		<path fill="#21A8C8" d="M754.354,744.472h1.629v7.173h8.427v-7.173h1.628v16.282h-1.628v-7.636h-8.427v7.636h-1.629V744.472z"/>
		<path fill="#21A8C8" d="M778.424,744.186c4.576,0,8.625,3.63,8.625,8.427s-4.07,8.428-8.625,8.428
			c-4.621,0-8.604-3.763-8.604-8.34C769.82,747.574,774.089,744.186,778.424,744.186z M778.424,759.565
			c3.762,0,6.997-3.059,6.997-6.931c0-3.807-3.146-6.976-6.997-6.976c-3.675,0-6.976,2.993-6.976,7.041
			C771.448,756.419,774.639,759.565,778.424,759.565z"/>
		<path fill="#21A8C8" d="M791.271,756.199c0.088,2.046,1.386,3.366,3.389,3.366c1.716,0,3.278-1.32,3.278-3.234
			c0-2.508-2.53-3.146-3.631-3.477c-1.474-0.439-4.225-1.056-4.225-4.291c0-2.529,2.003-4.378,4.577-4.378
			c2.662,0,4.511,2.046,4.511,4.423h-1.629c0-1.65-1.342-2.949-2.882-2.949c-1.87,0-2.948,1.431-2.948,2.839
			c0,1.98,1.738,2.442,3.872,3.059c4.005,1.078,3.982,4.225,3.982,4.708c0,2.509-2.024,4.775-4.906,4.775
			c-2.112,0-4.951-1.254-5.017-4.841H791.271z"/>
		<path fill="#21A8C8" d="M806.956,755.319l-5.654-10.848h1.804l4.643,9.131l4.774-9.131h1.783l-5.722,10.848v5.435h-1.628V755.319z
			"/>
		<path fill="#21A8C8" d="M817.582,756.199c0.088,2.046,1.386,3.366,3.389,3.366c1.716,0,3.278-1.32,3.278-3.234
			c0-2.508-2.53-3.146-3.631-3.477c-1.474-0.439-4.225-1.056-4.225-4.291c0-2.529,2.003-4.378,4.577-4.378
			c2.662,0,4.511,2.046,4.511,4.423h-1.629c0-1.65-1.342-2.949-2.882-2.949c-1.87,0-2.948,1.431-2.948,2.839
			c0,1.98,1.738,2.442,3.872,3.059c4.005,1.078,3.982,4.225,3.982,4.708c0,2.509-2.024,4.775-4.906,4.775
			c-2.112,0-4.951-1.254-5.017-4.841H817.582z"/>
		<path fill="#21A8C8" d="M831.464,745.946h-3.74v-1.475h9.088v1.475h-3.719v14.808h-1.629V745.946z"/>
		<path fill="#21A8C8" d="M839.669,744.472h8.911v1.475h-7.282v5.853h7.041v1.474h-7.041v6.008h7.282v1.474h-8.911V744.472z"/>
		<path fill="#21A8C8" d="M852.759,744.472h2.509l5.919,13.861l5.94-13.861h2.509v16.282h-1.628v-14.5h-0.045l-6.095,14.5h-1.386
			l-6.051-14.5h-0.044v14.5h-1.629V744.472z"/>
		<path fill="#21A8C8" d="M874.583,756.199c0.088,2.046,1.386,3.366,3.389,3.366c1.716,0,3.278-1.32,3.278-3.234
			c0-2.508-2.53-3.146-3.631-3.477c-1.474-0.439-4.225-1.056-4.225-4.291c0-2.529,2.003-4.378,4.577-4.378
			c2.662,0,4.511,2.046,4.511,4.423h-1.629c0-1.65-1.342-2.949-2.882-2.949c-1.87,0-2.948,1.431-2.948,2.839
			c0,1.98,1.738,2.442,3.872,3.059c4.005,1.078,3.982,4.225,3.982,4.708c0,2.509-2.024,4.775-4.906,4.775
			c-2.112,0-4.951-1.254-5.017-4.841H874.583z"/>
		<path fill="#21A8C8" d="M893.393,744.472h4.137c2.179,0,3.257,0.264,4.005,0.616c1.826,0.858,2.904,2.64,2.904,4.643
			c0,2.354-1.694,4.753-4.841,4.95l4.599,6.073h-2.046l-5.523-7.371c2.068,0,2.772-0.022,3.499-0.242
			c1.782-0.506,2.685-2.002,2.685-3.454c0-1.276-0.727-2.597-1.782-3.125c-0.969-0.506-1.805-0.615-3.169-0.615h-2.839v14.808
			h-1.628V744.472z"/>
		<path fill="#21A8C8" d="M907.912,744.472h8.911v1.475h-7.283v5.853h7.041v1.474h-7.041v6.008h7.283v1.474h-8.911V744.472z"/>
		<path fill="#21A8C8" d="M921.442,756.199c0.088,2.046,1.386,3.366,3.389,3.366c1.716,0,3.278-1.32,3.278-3.234
			c0-2.508-2.53-3.146-3.631-3.477c-1.474-0.439-4.225-1.056-4.225-4.291c0-2.529,2.003-4.378,4.577-4.378
			c2.662,0,4.511,2.046,4.511,4.423h-1.629c0-1.65-1.342-2.949-2.882-2.949c-1.87,0-2.948,1.431-2.948,2.839
			c0,1.98,1.738,2.442,3.872,3.059c4.005,1.078,3.982,4.225,3.982,4.708c0,2.509-2.024,4.775-4.906,4.775
			c-2.112,0-4.951-1.254-5.017-4.841H921.442z"/>
		<path fill="#21A8C8" d="M941.002,744.186c4.576,0,8.625,3.63,8.625,8.427s-4.07,8.428-8.625,8.428
			c-4.621,0-8.604-3.763-8.604-8.34C932.398,747.574,936.667,744.186,941.002,744.186z M941.002,759.565
			c3.762,0,6.997-3.059,6.997-6.931c0-3.807-3.146-6.976-6.997-6.976c-3.675,0-6.976,2.993-6.976,7.041
			C934.026,756.419,937.217,759.565,941.002,759.565z"/>
		<path fill="#21A8C8" d="M955.014,744.472v10.144c0,1.188,0.176,2.267,0.55,2.948c0.99,1.826,2.597,2.002,3.367,2.002
			c0.77,0,2.376-0.176,3.366-2.002c0.374-0.682,0.55-1.76,0.55-2.948v-10.144h1.629v10.144c0,1.364-0.221,2.53-0.616,3.388
			c-1.122,2.443-3.411,3.037-4.929,3.037c-1.519,0-3.807-0.594-4.929-3.037c-0.396-0.857-0.616-2.023-0.616-3.388v-10.144H955.014z"
			/>
		<path fill="#21A8C8" d="M968.852,744.472h4.137c2.179,0,3.257,0.264,4.005,0.616c1.826,0.858,2.904,2.64,2.904,4.643
			c0,2.354-1.694,4.753-4.841,4.95l4.599,6.073h-2.046l-5.523-7.371c2.068,0,2.772-0.022,3.499-0.242
			c1.782-0.506,2.685-2.002,2.685-3.454c0-1.276-0.727-2.597-1.782-3.125c-0.969-0.506-1.805-0.615-3.169-0.615h-2.839v14.808
			h-1.628V744.472z"/>
		<path fill="#21A8C8" d="M998.796,756.485c-1.738,3.19-4.885,4.555-7.504,4.555c-4.555,0-8.515-3.586-8.515-8.405
			s3.851-8.427,8.493-8.427c4.181,0,6.821,2.926,7.459,4.444h-1.826c-1.782-2.663-4.665-2.971-5.655-2.971
			c-3.807,0-6.843,3.345-6.843,6.976c0,3.807,3.345,6.908,6.865,6.908c0.814,0,3.477-0.109,5.699-3.08H998.796z"/>
		<path fill="#21A8C8" d="M1002.423,744.472h8.911v1.475h-7.282v5.853h7.041v1.474h-7.041v6.008h7.282v1.474h-8.911V744.472z"/>
		<path fill="#21A8C8" d="M1022.772,744.472h1.629v16.282h-1.629V744.472z"/>
		<path fill="#21A8C8" d="M1028.89,744.472h2.2l9.087,13.51h0.044v-13.51h1.629v16.282h-1.629l-9.659-14.324h-0.044v14.324h-1.628
			V744.472z"/>
		<path fill="#21A8C8" d="M1048.558,745.946h-3.741v-1.475h9.088v1.475h-3.719v14.808h-1.628V745.946z"/>
		<path fill="#21A8C8" d="M1056.763,744.472h8.911v1.475h-7.282v5.853h7.041v1.474h-7.041v6.008h7.282v1.474h-8.911V744.472z"/>
		<path fill="#21A8C8" d="M1086.399,753.272c-0.374,4.841-4.599,7.768-8.604,7.768c-4.862,0-8.735-3.938-8.735-8.428
			c0-4.225,3.499-8.427,8.714-8.427c4.312,0,7.062,2.97,7.701,4.62h-1.893c-0.924-1.605-3.08-3.146-5.787-3.146
			c-4.114,0-7.106,3.346-7.106,6.976s2.992,6.931,7.173,6.931c3.454,0,6.007-2.553,6.579-4.818h-9.088v-1.475H1086.399z"/>
		<path fill="#21A8C8" d="M1090.07,744.472h4.137c2.179,0,3.257,0.264,4.005,0.616c1.826,0.858,2.904,2.64,2.904,4.643
			c0,2.354-1.694,4.753-4.841,4.95l4.599,6.073h-2.046l-5.523-7.371c2.068,0,2.772-0.022,3.499-0.242
			c1.782-0.506,2.685-2.002,2.685-3.454c0-1.276-0.727-2.597-1.782-3.125c-0.969-0.506-1.805-0.615-3.169-0.615h-2.839v14.808
			h-1.628V744.472z"/>
		<path fill="#21A8C8" d="M1110.267,744.472h1.826l6.997,16.282h-1.782l-2.354-5.479h-7.568l-2.377,5.479h-1.694L1110.267,744.472z
			 M1108.001,753.801h6.314l-3.124-7.481L1108.001,753.801z"/>
		<path fill="#21A8C8" d="M1124.368,745.946h-3.74v-1.475h9.088v1.475h-3.719v14.808h-1.629V745.946z"/>
		<path fill="#21A8C8" d="M1132.706,744.472h1.629v16.282h-1.629V744.472z"/>
		<path fill="#21A8C8" d="M1146.722,744.186c4.576,0,8.625,3.63,8.625,8.427s-4.07,8.428-8.625,8.428
			c-4.621,0-8.604-3.763-8.604-8.34C1138.118,747.574,1142.387,744.186,1146.722,744.186z M1146.722,759.565
			c3.762,0,6.996-3.059,6.996-6.931c0-3.807-3.146-6.976-6.996-6.976c-3.675,0-6.976,2.993-6.976,7.041
			C1139.746,756.419,1142.937,759.565,1146.722,759.565z"/>
		<path fill="#21A8C8" d="M1159.106,744.472h2.2l9.087,13.51h0.044v-13.51h1.629v16.282h-1.629l-9.659-14.324h-0.044v14.324h-1.628
			V744.472z"/>
		<path fill="#21A8C8" d="M1199.126,756.485c-1.738,3.19-4.885,4.555-7.504,4.555c-4.555,0-8.515-3.586-8.515-8.405
			s3.851-8.427,8.493-8.427c4.181,0,6.821,2.926,7.459,4.444h-1.826c-1.782-2.663-4.665-2.971-5.655-2.971
			c-3.807,0-6.843,3.345-6.843,6.976c0,3.807,3.345,6.908,6.865,6.908c0.814,0,3.477-0.109,5.699-3.08H1199.126z"/>
		<path fill="#21A8C8" d="M1202.753,744.472h8.911v1.475h-7.282v5.853h7.041v1.474h-7.041v6.008h7.282v1.474h-8.911V744.472z"/>
		<path fill="#21A8C8" d="M1215.821,744.472h2.2l9.087,13.51h0.044v-13.51h1.629v16.282h-1.629l-9.659-14.324h-0.044v14.324h-1.628
			V744.472z"/>
		<path fill="#21A8C8" d="M1235.489,745.946h-3.741v-1.475h9.088v1.475h-3.719v14.808h-1.628V745.946z"/>
		<path fill="#21A8C8" d="M1243.694,744.472h8.911v1.475h-7.282v5.853h7.041v1.474h-7.041v6.008h7.282v1.474h-8.911V744.472z"/>
		<path fill="#21A8C8" d="M1256.652,744.472h4.137c2.179,0,3.257,0.264,4.005,0.616c1.826,0.858,2.904,2.64,2.904,4.643
			c0,2.354-1.694,4.753-4.841,4.95l4.599,6.073h-2.046l-5.523-7.371c2.068,0,2.772-0.022,3.499-0.242
			c1.782-0.506,2.685-2.002,2.685-3.454c0-1.276-0.727-2.597-1.782-3.125c-0.969-0.506-1.805-0.615-3.169-0.615h-2.839v14.808
			h-1.628V744.472z"/>
	</g>
</g>
<g id="Black_and_White" display="none">
	<g id="PATRIC_and_tagline" display="inline">
		<path d="M711.465,929.817h37.079c18.359,0,26.999,2.88,34.379,7.74c9.899,6.659,16.559,17.999,16.559,32.039
			c0,14.039-6.659,25.379-16.559,32.038c-7.38,4.86-16.02,7.739-34.379,7.739h-23.759v53.639h-13.32V929.817z M724.785,997.315
			h19.259c14.22,0,19.079,0,26.639-3.42c10.439-4.86,15.479-14.22,15.479-24.299c0-10.08-5.04-19.439-15.479-24.3
			c-7.56-3.42-12.419-3.42-26.639-3.42h-19.259V997.315z"/>
		<path d="M843.085,929.817h14.938l57.238,133.195h-14.579l-19.26-44.818h-61.917l-19.439,44.818h-13.859L843.085,929.817z
			 M824.545,1006.135h51.658l-25.559-61.198L824.545,1006.135z"/>
		<path d="M940.838,941.877h-30.599v-12.06h74.337v12.06h-30.419v121.136h-13.319V941.877z"/>
		<path d="M998.438,929.817h33.839c17.819,0,26.639,2.16,32.758,5.04c14.939,7.02,23.76,21.599,23.76,37.979
			c0,19.259-13.859,38.878-39.599,40.498l37.618,49.679h-16.739l-45.178-60.298c16.919,0,22.679-0.181,28.618-1.979
			c14.58-4.141,21.96-16.38,21.96-28.26c0-10.439-5.94-21.238-14.58-25.559c-7.919-4.14-14.759-5.04-25.919-5.04h-23.219v121.136
			h-13.319V929.817z"/>
		<path d="M1108.776,929.817h13.319v133.195h-13.319V929.817z"/>
		<path d="M1274.551,1028.094c-14.22,26.099-39.958,37.259-61.378,37.259c-37.258,0-69.657-29.34-69.657-68.758
			s31.499-68.938,69.478-68.938c34.198,0,55.798,23.939,61.018,36.359h-14.939c-14.579-21.779-38.158-24.299-46.258-24.299
			c-31.139,0-55.978,27.358-55.978,57.057c0,31.139,27.358,56.518,56.157,56.518c6.66,0,28.438-0.899,46.618-25.198H1274.551z"/>
		<path fill="#6D6F71" d="M712.159,1080.472h4.532c2.244,0,3.301,0.352,4.203,0.945c1.21,0.814,2.024,2.201,2.024,3.918
			c0,1.715-0.814,3.102-2.024,3.916c-0.902,0.594-1.959,0.945-4.203,0.945h-2.904v6.558h-1.628V1080.472z M713.787,1088.723h2.354
			c1.738,0,2.332,0,3.257-0.418c1.275-0.595,1.892-1.738,1.892-2.97c0-1.232-0.616-2.377-1.892-2.971
			c-0.925-0.418-1.519-0.418-3.257-0.418h-2.354V1088.723z"/>
		<path fill="#6D6F71" d="M731.915,1080.472h1.826l6.997,16.282h-1.782l-2.354-5.479h-7.568l-2.377,5.479h-1.694L731.915,1080.472z
			 M729.649,1089.801h6.314l-3.124-7.481L729.649,1089.801z"/>
		<path fill="#6D6F71" d="M746.017,1081.946h-3.74v-1.475h9.088v1.475h-3.719v14.808h-1.629V1081.946z"/>
		<path fill="#6D6F71" d="M754.354,1080.472h1.629v7.173h8.427v-7.173h1.628v16.282h-1.628v-7.636h-8.427v7.636h-1.629V1080.472z"/>
		<path fill="#6D6F71" d="M778.424,1080.186c4.576,0,8.625,3.63,8.625,8.427s-4.07,8.428-8.625,8.428
			c-4.621,0-8.604-3.763-8.604-8.34C769.82,1083.574,774.089,1080.186,778.424,1080.186z M778.424,1095.565
			c3.762,0,6.997-3.059,6.997-6.931c0-3.807-3.146-6.976-6.997-6.976c-3.675,0-6.976,2.993-6.976,7.041
			C771.448,1092.419,774.639,1095.565,778.424,1095.565z"/>
		<path fill="#6D6F71" d="M791.271,1092.199c0.088,2.046,1.386,3.366,3.389,3.366c1.716,0,3.278-1.32,3.278-3.234
			c0-2.508-2.53-3.146-3.631-3.477c-1.474-0.439-4.225-1.056-4.225-4.291c0-2.529,2.003-4.378,4.577-4.378
			c2.662,0,4.511,2.046,4.511,4.423h-1.629c0-1.65-1.342-2.949-2.882-2.949c-1.87,0-2.948,1.431-2.948,2.839
			c0,1.98,1.738,2.442,3.872,3.059c4.005,1.078,3.982,4.225,3.982,4.708c0,2.509-2.024,4.775-4.906,4.775
			c-2.112,0-4.951-1.254-5.017-4.841H791.271z"/>
		<path fill="#6D6F71" d="M806.956,1091.319l-5.654-10.848h1.804l4.643,9.131l4.774-9.131h1.783l-5.722,10.848v5.435h-1.628
			V1091.319z"/>
		<path fill="#6D6F71" d="M817.582,1092.199c0.088,2.046,1.386,3.366,3.389,3.366c1.716,0,3.278-1.32,3.278-3.234
			c0-2.508-2.53-3.146-3.631-3.477c-1.474-0.439-4.225-1.056-4.225-4.291c0-2.529,2.003-4.378,4.577-4.378
			c2.662,0,4.511,2.046,4.511,4.423h-1.629c0-1.65-1.342-2.949-2.882-2.949c-1.87,0-2.948,1.431-2.948,2.839
			c0,1.98,1.738,2.442,3.872,3.059c4.005,1.078,3.982,4.225,3.982,4.708c0,2.509-2.024,4.775-4.906,4.775
			c-2.112,0-4.951-1.254-5.017-4.841H817.582z"/>
		<path fill="#6D6F71" d="M831.464,1081.946h-3.74v-1.475h9.088v1.475h-3.719v14.808h-1.629V1081.946z"/>
		<path fill="#6D6F71" d="M839.669,1080.472h8.911v1.475h-7.282v5.853h7.041v1.474h-7.041v6.008h7.282v1.474h-8.911V1080.472z"/>
		<path fill="#6D6F71" d="M852.759,1080.472h2.509l5.919,13.861l5.94-13.861h2.509v16.282h-1.628v-14.5h-0.045l-6.095,14.5h-1.386
			l-6.051-14.5h-0.044v14.5h-1.629V1080.472z"/>
		<path fill="#6D6F71" d="M874.583,1092.199c0.088,2.046,1.386,3.366,3.389,3.366c1.716,0,3.278-1.32,3.278-3.234
			c0-2.508-2.53-3.146-3.631-3.477c-1.474-0.439-4.225-1.056-4.225-4.291c0-2.529,2.003-4.378,4.577-4.378
			c2.662,0,4.511,2.046,4.511,4.423h-1.629c0-1.65-1.342-2.949-2.882-2.949c-1.87,0-2.948,1.431-2.948,2.839
			c0,1.98,1.738,2.442,3.872,3.059c4.005,1.078,3.982,4.225,3.982,4.708c0,2.509-2.024,4.775-4.906,4.775
			c-2.112,0-4.951-1.254-5.017-4.841H874.583z"/>
		<path fill="#6D6F71" d="M893.393,1080.472h4.137c2.179,0,3.257,0.264,4.005,0.616c1.826,0.858,2.904,2.64,2.904,4.643
			c0,2.354-1.694,4.753-4.841,4.95l4.599,6.073h-2.046l-5.523-7.371c2.068,0,2.772-0.022,3.499-0.242
			c1.782-0.506,2.685-2.002,2.685-3.454c0-1.276-0.727-2.597-1.782-3.125c-0.969-0.506-1.805-0.615-3.169-0.615h-2.839v14.808
			h-1.628V1080.472z"/>
		<path fill="#6D6F71" d="M907.912,1080.472h8.911v1.475h-7.283v5.853h7.041v1.474h-7.041v6.008h7.283v1.474h-8.911V1080.472z"/>
		<path fill="#6D6F71" d="M921.442,1092.199c0.088,2.046,1.386,3.366,3.389,3.366c1.716,0,3.278-1.32,3.278-3.234
			c0-2.508-2.53-3.146-3.631-3.477c-1.474-0.439-4.225-1.056-4.225-4.291c0-2.529,2.003-4.378,4.577-4.378
			c2.662,0,4.511,2.046,4.511,4.423h-1.629c0-1.65-1.342-2.949-2.882-2.949c-1.87,0-2.948,1.431-2.948,2.839
			c0,1.98,1.738,2.442,3.872,3.059c4.005,1.078,3.982,4.225,3.982,4.708c0,2.509-2.024,4.775-4.906,4.775
			c-2.112,0-4.951-1.254-5.017-4.841H921.442z"/>
		<path fill="#6D6F71" d="M941.002,1080.186c4.576,0,8.625,3.63,8.625,8.427s-4.07,8.428-8.625,8.428
			c-4.621,0-8.604-3.763-8.604-8.34C932.398,1083.574,936.667,1080.186,941.002,1080.186z M941.002,1095.565
			c3.762,0,6.997-3.059,6.997-6.931c0-3.807-3.146-6.976-6.997-6.976c-3.675,0-6.976,2.993-6.976,7.041
			C934.026,1092.419,937.217,1095.565,941.002,1095.565z"/>
		<path fill="#6D6F71" d="M955.014,1080.472v10.144c0,1.188,0.176,2.267,0.55,2.948c0.99,1.826,2.597,2.002,3.367,2.002
			c0.77,0,2.376-0.176,3.366-2.002c0.374-0.682,0.55-1.76,0.55-2.948v-10.144h1.629v10.144c0,1.364-0.221,2.53-0.616,3.388
			c-1.122,2.443-3.411,3.037-4.929,3.037c-1.519,0-3.807-0.594-4.929-3.037c-0.396-0.857-0.616-2.023-0.616-3.388v-10.144H955.014z"
			/>
		<path fill="#6D6F71" d="M968.852,1080.472h4.137c2.179,0,3.257,0.264,4.005,0.616c1.826,0.858,2.904,2.64,2.904,4.643
			c0,2.354-1.694,4.753-4.841,4.95l4.599,6.073h-2.046l-5.523-7.371c2.068,0,2.772-0.022,3.499-0.242
			c1.782-0.506,2.685-2.002,2.685-3.454c0-1.276-0.727-2.597-1.782-3.125c-0.969-0.506-1.805-0.615-3.169-0.615h-2.839v14.808
			h-1.628V1080.472z"/>
		<path fill="#6D6F71" d="M998.796,1092.485c-1.738,3.19-4.885,4.555-7.504,4.555c-4.555,0-8.515-3.586-8.515-8.405
			s3.851-8.427,8.493-8.427c4.181,0,6.821,2.926,7.459,4.444h-1.826c-1.782-2.663-4.665-2.971-5.655-2.971
			c-3.807,0-6.843,3.345-6.843,6.976c0,3.807,3.345,6.908,6.865,6.908c0.814,0,3.477-0.109,5.699-3.08H998.796z"/>
		<path fill="#6D6F71" d="M1002.423,1080.472h8.911v1.475h-7.282v5.853h7.041v1.474h-7.041v6.008h7.282v1.474h-8.911V1080.472z"/>
		<path fill="#6D6F71" d="M1022.772,1080.472h1.629v16.282h-1.629V1080.472z"/>
		<path fill="#6D6F71" d="M1028.89,1080.472h2.2l9.087,13.51h0.044v-13.51h1.629v16.282h-1.629l-9.659-14.324h-0.044v14.324h-1.628
			V1080.472z"/>
		<path fill="#6D6F71" d="M1048.558,1081.946h-3.741v-1.475h9.088v1.475h-3.719v14.808h-1.628V1081.946z"/>
		<path fill="#6D6F71" d="M1056.763,1080.472h8.911v1.475h-7.282v5.853h7.041v1.474h-7.041v6.008h7.282v1.474h-8.911V1080.472z"/>
		<path fill="#6D6F71" d="M1086.399,1089.272c-0.374,4.841-4.599,7.768-8.604,7.768c-4.862,0-8.735-3.938-8.735-8.428
			c0-4.225,3.499-8.427,8.714-8.427c4.312,0,7.062,2.97,7.701,4.62h-1.893c-0.924-1.605-3.08-3.146-5.787-3.146
			c-4.114,0-7.106,3.346-7.106,6.976s2.992,6.931,7.173,6.931c3.454,0,6.007-2.553,6.579-4.818h-9.088v-1.475H1086.399z"/>
		<path fill="#6D6F71" d="M1090.07,1080.472h4.137c2.179,0,3.257,0.264,4.005,0.616c1.826,0.858,2.904,2.64,2.904,4.643
			c0,2.354-1.694,4.753-4.841,4.95l4.599,6.073h-2.046l-5.523-7.371c2.068,0,2.772-0.022,3.499-0.242
			c1.782-0.506,2.685-2.002,2.685-3.454c0-1.276-0.727-2.597-1.782-3.125c-0.969-0.506-1.805-0.615-3.169-0.615h-2.839v14.808
			h-1.628V1080.472z"/>
		<path fill="#6D6F71" d="M1110.267,1080.472h1.826l6.997,16.282h-1.782l-2.354-5.479h-7.568l-2.377,5.479h-1.694L1110.267,1080.472
			z M1108.001,1089.801h6.314l-3.124-7.481L1108.001,1089.801z"/>
		<path fill="#6D6F71" d="M1124.368,1081.946h-3.74v-1.475h9.088v1.475h-3.719v14.808h-1.629V1081.946z"/>
		<path fill="#6D6F71" d="M1132.706,1080.472h1.629v16.282h-1.629V1080.472z"/>
		<path fill="#6D6F71" d="M1146.722,1080.186c4.576,0,8.625,3.63,8.625,8.427s-4.07,8.428-8.625,8.428
			c-4.621,0-8.604-3.763-8.604-8.34C1138.118,1083.574,1142.387,1080.186,1146.722,1080.186z M1146.722,1095.565
			c3.762,0,6.996-3.059,6.996-6.931c0-3.807-3.146-6.976-6.996-6.976c-3.675,0-6.976,2.993-6.976,7.041
			C1139.746,1092.419,1142.937,1095.565,1146.722,1095.565z"/>
		<path fill="#6D6F71" d="M1159.106,1080.472h2.2l9.087,13.51h0.044v-13.51h1.629v16.282h-1.629l-9.659-14.324h-0.044v14.324h-1.628
			V1080.472z"/>
		<path fill="#6D6F71" d="M1199.126,1092.485c-1.738,3.19-4.885,4.555-7.504,4.555c-4.555,0-8.515-3.586-8.515-8.405
			s3.851-8.427,8.493-8.427c4.181,0,6.821,2.926,7.459,4.444h-1.826c-1.782-2.663-4.665-2.971-5.655-2.971
			c-3.807,0-6.843,3.345-6.843,6.976c0,3.807,3.345,6.908,6.865,6.908c0.814,0,3.477-0.109,5.699-3.08H1199.126z"/>
		<path fill="#6D6F71" d="M1202.753,1080.472h8.911v1.475h-7.282v5.853h7.041v1.474h-7.041v6.008h7.282v1.474h-8.911V1080.472z"/>
		<path fill="#6D6F71" d="M1215.821,1080.472h2.2l9.087,13.51h0.044v-13.51h1.629v16.282h-1.629l-9.659-14.324h-0.044v14.324h-1.628
			V1080.472z"/>
		<path fill="#6D6F71" d="M1235.489,1081.946h-3.741v-1.475h9.088v1.475h-3.719v14.808h-1.628V1081.946z"/>
		<path fill="#6D6F71" d="M1243.694,1080.472h8.911v1.475h-7.282v5.853h7.041v1.474h-7.041v6.008h7.282v1.474h-8.911V1080.472z"/>
		<path fill="#6D6F71" d="M1256.652,1080.472h4.137c2.179,0,3.257,0.264,4.005,0.616c1.826,0.858,2.904,2.64,2.904,4.643
			c0,2.354-1.694,4.753-4.841,4.95l4.599,6.073h-2.046l-5.523-7.371c2.068,0,2.772-0.022,3.499-0.242
			c1.782-0.506,2.685-2.002,2.685-3.454c0-1.276-0.727-2.597-1.782-3.125c-0.969-0.506-1.805-0.615-3.169-0.615h-2.839v14.808
			h-1.628V1080.472z"/>
	</g>
	
		<linearGradient id="Bacteria__x3C_Path_x3E__3_" gradientUnits="userSpaceOnUse" x1="-3043.1094" y1="801.8662" x2="-2818.8086" y2="801.8662" gradientTransform="matrix(-1 0 0 -1 -2364.0293 1805.2578)">
		<stop  offset="0" style="stop-color:#6D6F71"/>
		<stop  offset="1" style="stop-color:#000000"/>
	</linearGradient>
	<path id="Bacteria__x3C_Path_x3E_" display="inline" fill="url(#Bacteria__x3C_Path_x3E__3_)" d="M631.312,959.503
		c26.381,0,47.768,19.649,47.768,43.888l0,0c0,24.238-21.387,43.889-47.768,43.889H502.548c-26.382,0-47.769-19.65-47.769-43.889
		l0,0c0-24.238,21.387-43.888,47.769-43.888H631.312z"/>
	<g id="Ext._flagellum__x3C_Group_x3E_" display="inline">
		<linearGradient id="SVGID_4_" gradientUnits="userSpaceOnUse" x1="670.8604" y1="1002.7236" x2="1069.9111" y2="1002.7236">
			<stop  offset="0.227" style="stop-color:#6D6F71"/>
			<stop  offset="1" style="stop-color:#6D6F71;stop-opacity:0"/>
		</linearGradient>
		<path fill="url(#SVGID_4_)" d="M857.29,1032.632c-17.111,0-38.085-4.453-63.567-16.897
			c-64.163-31.335-120.373-8.237-120.932-7.999c-0.708,0.298-1.521-0.032-1.82-0.738s0.032-1.521,0.738-1.82
			c0.586-0.248,14.609-6.094,36.906-8.079c20.558-1.832,52.219-0.516,86.326,16.141c72.64,35.474,107.623,4.71,120.793-6.871
			c1.01-0.888,1.904-1.675,2.692-2.328c0.516-0.429,1.068-0.893,1.656-1.387c16.909-14.203,61.819-51.937,149.016-12.117
			c0.697,0.319,1.005,1.143,0.687,1.841c-0.319,0.698-1.142,1.004-1.841,0.687c-85.592-39.091-129.532-2.18-146.074,11.717
			c-0.594,0.498-1.149,0.965-1.67,1.396c-0.77,0.64-1.645,1.409-2.632,2.276C908.666,1016.281,890.07,1032.631,857.29,1032.632
			L857.29,1032.632z"/>
		<linearGradient id="SVGID_5_" gradientUnits="userSpaceOnUse" x1="630.0723" y1="981.7666" x2="1253.1025" y2="981.7666">
			<stop  offset="0.227" style="stop-color:#6D6F71"/>
			<stop  offset="1" style="stop-color:#6D6F71;stop-opacity:0"/>
		</linearGradient>
		<path fill="url(#SVGID_5_)" d="M827.38,1007.243c-16.177,0-35.941-2.768-58.727-11.139c-73.662-27.069-136.138,5.314-136.76,5.646
			c-0.604,0.318-1.354,0.091-1.677-0.515c-0.32-0.604-0.091-1.355,0.515-1.677c0.158-0.084,16.136-8.464,41.091-13.317
			c23.023-4.479,58.658-6.806,97.687,7.535c38.397,14.106,68.022,12.075,86.11,7.885c19.595-4.538,30.26-12.514,30.365-12.594
			c0.337-0.225,27.193-17.593,69.128-26.928c38.697-8.616,98.56-11.983,163.974,20.897c70.845,35.612,131.745,14.164,132.352,13.943
			c0.642-0.233,1.355,0.097,1.59,0.741c0.234,0.643-0.097,1.354-0.74,1.589c-0.154,0.057-15.745,5.649-39.966,6.683
			c-22.318,0.946-56.817-1.874-94.349-20.74c-64.762-32.552-124.017-29.222-162.321-20.692
			c-41.498,9.237-67.976,26.359-68.238,26.531c-0.371,0.287-11.024,8.277-31.086,12.951
			C848.646,1005.833,838.927,1007.243,827.38,1007.243L827.38,1007.243z"/>
		<linearGradient id="SVGID_6_" gradientUnits="userSpaceOnUse" x1="625.0947" y1="1005.5205" x2="1150.2705" y2="1005.5205">
			<stop  offset="0.227" style="stop-color:#6D6F71"/>
			<stop  offset="1" style="stop-color:#6D6F71;stop-opacity:0"/>
		</linearGradient>
		<path fill="url(#SVGID_6_)" d="M993.345,1034.155c-37.882,0.001-76.617-9.63-104.008-26.572
			c-0.229-0.159-16.741-11.693-42.257-17.416c-23.501-5.271-59.688-6.546-98.641,17.307c-39.734,24.332-71.023,22.99-90.278,17.582
			c-20.923-5.879-32.243-17.389-32.715-17.875c-0.479-0.496-0.467-1.287,0.028-1.768c0.497-0.479,1.288-0.469,1.768,0.027
			c0.111,0.115,11.409,11.571,31.729,17.245c18.752,5.234,49.266,6.476,88.162-17.345c39.709-24.315,76.622-22.988,100.598-17.59
			c25.974,5.846,42.819,17.63,42.986,17.748c33.423,20.672,84.159,30.301,129.199,24.488c54.486-7.03,110.944-39.229,128.334-52.838
			c0.544-0.424,1.332-0.329,1.755,0.214c0.426,0.544,0.33,1.329-0.214,1.755c-17.56,13.741-74.56,46.253-129.555,53.35
			C1011.436,1033.604,1002.411,1034.155,993.345,1034.155L993.345,1034.155z"/>
	</g>
	<g id="Grey_int._flagellum_x3C_Group_x3E_" display="inline">
		<path fill="#666766" d="M661.842,1037.157c-21.282-8.576-41.841-24.442-65.236-36.75c-37.708-19.838-91.204-3.911-130.615,29.839
			l-0.686,0.654c-1.188-1.344-2.906-3.625-3.641-4.797l0.761-0.679c40.502-33.892,96.22-46.627,135.363-25.55
			c22.066,11.881,43.571,27.938,66.244,35.433C663.606,1035.781,662.57,1036.525,661.842,1037.157z"/>
		<path fill="#666766" d="M674.327,1021.814c-29.088,8.17-61.132,7.228-92.952-10.771c-35.757-20.222-63.768-42.555-95.39-48.849
			c-5.734,1.935-9.883,4.667-9.883,4.667c35.708,1.093,65.429,22.605,104.864,44.91c31.35,17.73,62.768,20.168,91.551,13.365
			C672.751,1025.064,674.877,1022.048,674.327,1021.814z"/>
	</g>
	<g id="White_int._flagellum__x3C_Group_x3E_" display="inline">
		<path fill="#FFFFFF" d="M671.469,1027.681l-2.643,2.947c-0.333-0.064-0.674-0.134-1.022-0.208
			c-27.542-5.854-51.747-25.771-80.925-41.121c-37.318-19.632-90.099-4.237-129.387,28.796c-1.734-4.199-1.822-6.206-1.822-6.206
			c40.223-32.063,94.197-43.689,132.392-23.123c27.195,14.645,52.733,34.82,81.833,38.682
			C670.283,1027.498,671.106,1027.625,671.469,1027.681z"/>
		<path fill="#FFFFFF" d="M679.197,1005.504c-33.682,13.43-69.877,15.738-107.549-5.568c-26.061-14.739-48.006-30.599-70.234-40.553
			c-5.608-0.106-8.531,0.904-8.531,0.904c25.051,7.648,49.047,23.799,78.357,40.377c38.008,21.498,74.238,20.814,108.432,8.01
			C680.636,1008.468,680.636,1005.754,679.197,1005.504z"/>
	</g>
</g>
<g id="WORKSHOPS" display="none">
	<text transform="matrix(1.5 0 0 1.25 651.8018 833.001)"><tspan x="0" y="0" display="inline" fill="#0C456F" font-family="'Arial-Black'" font-size="60">WORKSHOP</tspan><tspan x="393.252" y="0" display="inline" fill="#0C456F" font-family="'Arial-Black'" font-size="60" letter-spacing="-9.333">S</tspan></text>
	
		<text transform="matrix(2.6295 0 0 1.25 456.418 839.7178)" display="inline" fill="#0C456F" font-family="'ArialNarrow-Bold'" font-size="63.3305">WORKSHOP</text>
</g>
</svg>
