<?xml version="1.0" encoding="UTF-8" standalone="no"?>
<!DOCTYPE svg PUBLIC "-//W3C//DTD SVG 1.1//EN" "http://www.w3.org/Graphics/SVG/1.1/DTD/svg11.dtd">
<svg width="100%" height="100%" viewBox="0 0 1042 234" version="1.1" xmlns="http://www.w3.org/2000/svg" xmlns:xlink="http://www.w3.org/1999/xlink" xml:space="preserve" xmlns:serif="http://www.serif.com/" style="fill-rule:evenodd;clip-rule:evenodd;stroke-miterlimit:2;">
    <g transform="matrix(4.16667,0,0,4.16667,0,0)">
        <path d="M67.332,33.714L249.718,33.714" style="fill:none;stroke:rgb(35,31,32);stroke-width:0.93px;"/>
        <path d="M69.252,37.387L71.147,37.387L73.467,43.146L75.787,37.387L77.682,37.387L73.467,47.001L69.252,37.387Z" style="fill:rgb(0,94,171);fill-rule:nonzero;"/>
        <path d="M78.595,39.546L80.172,39.546L80.172,46.807L78.595,46.807L78.595,39.546ZM79.383,37.191C79.869,37.191 80.263,37.581 80.263,38.061C80.263,38.541 79.869,38.932 79.383,38.932C78.898,38.932 78.504,38.541 78.504,38.061C78.504,37.581 78.898,37.191 79.383,37.191Z" style="fill:rgb(0,94,171);fill-rule:nonzero;"/>
        <path d="M82.355,39.546L83.84,39.546L83.84,40.342L83.871,40.342C84.128,39.742 84.674,39.352 85.311,39.352C85.66,39.352 85.963,39.441 86.175,39.577L85.614,41.122C85.463,41.001 85.175,40.912 85.023,40.912C84.447,40.912 83.932,41.347 83.932,42.007L83.932,46.807L82.355,46.807L82.355,39.546Z" style="fill:rgb(0,94,171);fill-rule:nonzero;"/>
        <path d="M87.282,39.546L88.859,39.546L88.859,43.612C88.859,44.677 89.647,45.441 90.633,45.441C91.619,45.441 92.407,44.677 92.407,43.612L92.407,39.546L93.984,39.546L93.984,43.747C93.984,45.787 92.377,47.001 90.633,47.001C88.89,47.001 87.282,45.787 87.282,43.747L87.282,39.546Z" style="fill:rgb(0,94,171);fill-rule:nonzero;"/>
        <path d="M102.687,42.382C102.763,42.637 102.808,42.862 102.808,43.461C102.808,45.231 101.504,47.001 99.047,47.001C97.683,47.001 96.485,46.387 95.803,45.697L97.031,44.662C97.379,45.021 98.107,45.532 99.123,45.532C100.125,45.532 101.049,44.977 101.14,43.762L95.697,43.762C95.651,43.537 95.606,43.356 95.606,43.012C95.606,41.077 97.031,39.352 99.351,39.352C100.852,39.352 101.792,40.057 102.292,40.612L101.17,41.632C100.776,41.227 100.291,40.731 99.32,40.731C98.002,40.731 97.395,41.452 97.273,42.382L102.687,42.382Z" style="fill:rgb(0,94,171);fill-rule:nonzero;"/>
        <path d="M110.767,41.151L113.875,41.151C114.785,41.151 115.104,40.581 115.104,40.102C115.104,39.606 114.785,39.037 113.875,39.037L110.767,39.037L110.767,41.151ZM109.009,42.802L107.872,42.802L107.872,41.151L109.009,41.151L109.009,37.387L113.724,37.387C115.831,37.387 116.862,38.467 116.862,40.102C116.862,41.737 115.831,42.802 113.724,42.802L110.767,42.802L110.767,46.807L109.009,46.807L109.009,42.802Z" style="fill:rgb(0,94,171);fill-rule:nonzero;"/>
        <path d="M121.805,45.532C123.048,45.532 124.11,44.481 124.11,43.177C124.11,41.872 123.048,40.822 121.805,40.822C120.532,40.822 119.47,41.872 119.47,43.177C119.47,44.481 120.532,45.532 121.805,45.532ZM124.049,45.922L124.019,45.922C123.519,46.581 122.609,47.001 121.608,47.001C119.197,47.001 117.803,45.052 117.803,43.177C117.803,41.392 119.304,39.352 121.684,39.352C122.775,39.352 123.609,39.816 124.019,40.432L124.049,40.432L124.049,39.546L125.626,39.546L125.626,46.807L124.049,46.807L124.049,45.922Z" style="fill:rgb(0,94,171);fill-rule:nonzero;"/>
        <path d="M127.87,41.017L126.975,41.017L126.975,39.546L127.87,39.546L127.87,37.611L129.446,37.191L129.446,39.546L130.567,39.546L130.567,41.017L129.446,41.017L129.446,46.807L127.87,46.807L127.87,41.017Z" style="fill:rgb(0,94,171);fill-rule:nonzero;"/>
        <path d="M131.857,37.387L133.434,37.387L133.434,40.461L133.464,40.461C133.904,39.787 134.708,39.352 135.708,39.352C137.254,39.352 138.558,40.626 138.558,42.427L138.558,46.807L136.982,46.807L136.982,42.771C136.982,41.452 136.284,40.912 135.238,40.912C134.222,40.912 133.434,41.557 133.434,42.742L133.434,46.807L131.857,46.807L131.857,37.387Z" style="fill:rgb(0,94,171);fill-rule:nonzero;"/>
        <path d="M144.213,45.532C145.593,45.532 146.593,44.481 146.593,43.177C146.593,41.872 145.593,40.822 144.213,40.822C142.833,40.822 141.833,41.872 141.833,43.177C141.833,44.481 142.833,45.532 144.213,45.532ZM144.213,39.352C146.776,39.352 148.261,41.257 148.261,43.177C148.261,45.097 146.776,47.001 144.213,47.001C141.652,47.001 140.166,45.097 140.166,43.177C140.166,41.257 141.652,39.352 144.213,39.352Z" style="fill:rgb(0,94,171);fill-rule:nonzero;"/>
        <path d="M153.205,45.336C154.478,45.336 155.388,44.331 155.388,43.086C155.388,41.827 154.402,40.822 153.205,40.822C151.976,40.822 150.991,41.827 150.991,43.072C150.991,44.331 151.871,45.336 153.205,45.336ZM156.874,45.997C156.874,48.396 155.024,49.777 153.038,49.777C152.022,49.777 150.779,49.356 149.945,48.336L151.234,47.407C151.537,47.827 152.218,48.307 152.962,48.307C154.569,48.307 155.388,47.271 155.388,46.162L155.388,45.682C154.72,46.416 153.962,46.807 152.886,46.807C150.991,46.807 149.324,45.396 149.324,43.102C149.324,40.717 151.113,39.352 153.068,39.352C154.053,39.352 154.841,39.727 155.357,40.401L155.388,40.401L155.388,39.546L156.874,39.546L156.874,45.997Z" style="fill:rgb(0,94,171);fill-rule:nonzero;"/>
        <path d="M164.605,42.427C164.272,41.316 163.438,40.731 162.437,40.731C161.437,40.731 160.619,41.347 160.361,42.427L164.605,42.427ZM166.061,45.231C165.181,46.327 163.968,46.987 162.65,47.001C160.087,47.001 158.601,45.097 158.601,43.177C158.601,41.257 160.087,39.352 162.65,39.352C164.181,39.352 166.455,40.597 166.455,43.432L166.455,43.717L160.361,43.717C160.451,44.827 161.498,45.622 162.604,45.622C163.453,45.622 164.181,45.217 164.726,44.497L166.061,45.231Z" style="fill:rgb(0,94,171);fill-rule:nonzero;"/>
        <path d="M168.183,39.546L169.761,39.546L169.761,40.461L169.791,40.461C170.23,39.787 171.035,39.352 172.035,39.352C173.582,39.352 174.885,40.626 174.885,42.427L174.885,46.807L173.308,46.807L173.308,42.771C173.308,41.452 172.611,40.912 171.565,40.912C170.548,40.912 169.761,41.557 169.761,42.742L169.761,46.807L168.183,46.807L168.183,39.546Z" style="fill:rgb(0,94,171);fill-rule:nonzero;"/>
        <path d="M183.375,41.151L186.484,41.151C187.393,41.151 187.711,40.581 187.711,40.102C187.711,39.606 187.393,39.037 186.484,39.037L183.375,39.037L183.375,41.151ZM181.617,42.802L180.48,42.802L180.48,41.151L181.617,41.151L181.617,37.387L186.332,37.387C188.439,37.387 189.47,38.467 189.47,40.102C189.47,41.347 188.849,42.517 187.06,42.757L189.591,46.807L187.514,46.807L185.119,42.802L183.375,42.802L183.375,46.807L181.617,46.807L181.617,42.802Z" style="fill:rgb(0,94,171);fill-rule:nonzero;"/>
        <path d="M196.808,42.427C196.474,41.316 195.64,40.731 194.64,40.731C193.639,40.731 192.821,41.347 192.563,42.427L196.808,42.427ZM198.263,45.231C197.384,46.327 196.171,46.987 194.852,47.001C192.291,47.001 190.804,45.097 190.804,43.177C190.804,41.257 192.291,39.352 194.852,39.352C196.384,39.352 198.658,40.597 198.658,43.432L198.658,43.717L192.563,43.717C192.654,44.827 193.701,45.622 194.806,45.622C195.656,45.622 196.384,45.217 196.929,44.497L198.263,45.231Z" style="fill:rgb(0,94,171);fill-rule:nonzero;"/>
        <path d="M206.936,42.382C207.012,42.637 207.058,42.862 207.058,43.461C207.058,45.231 205.753,47.001 203.297,47.001C201.933,47.001 200.736,46.387 200.052,45.697L201.281,44.662C201.63,45.021 202.357,45.532 203.373,45.532C204.375,45.532 205.298,44.977 205.39,43.762L199.947,43.762C199.902,43.537 199.856,43.356 199.856,43.012C199.856,41.077 201.281,39.352 203.601,39.352C205.101,39.352 206.042,40.057 206.542,40.612L205.419,41.632C205.026,41.227 204.541,40.731 203.57,40.731C202.251,40.731 201.645,41.452 201.523,42.382L206.936,42.382Z" style="fill:rgb(0,94,171);fill-rule:nonzero;"/>
        <path d="M212.181,45.532C213.562,45.532 214.562,44.481 214.562,43.177C214.562,41.872 213.562,40.822 212.181,40.822C210.802,40.822 209.801,41.872 209.801,43.177C209.801,44.481 210.802,45.532 212.181,45.532ZM212.181,39.352C214.744,39.352 216.23,41.257 216.23,43.177C216.23,45.097 214.744,47.001 212.181,47.001C209.619,47.001 208.134,45.097 208.134,43.177C208.134,41.257 209.619,39.352 212.181,39.352Z" style="fill:rgb(0,94,171);fill-rule:nonzero;"/>
        <path d="M217.837,39.546L219.414,39.546L219.414,43.612C219.414,44.677 220.203,45.441 221.188,45.441C222.173,45.441 222.962,44.677 222.962,43.612L222.962,39.546L224.539,39.546L224.539,43.747C224.539,45.787 222.931,47.001 221.188,47.001C219.445,47.001 217.837,45.787 217.837,43.747L217.837,39.546Z" style="fill:rgb(0,94,171);fill-rule:nonzero;"/>
        <path d="M226.691,39.546L228.177,39.546L228.177,40.342L228.207,40.342C228.464,39.742 229.011,39.352 229.648,39.352C229.996,39.352 230.299,39.441 230.511,39.577L229.951,41.122C229.799,41.001 229.511,40.912 229.359,40.912C228.783,40.912 228.268,41.347 228.268,42.007L228.268,46.807L226.691,46.807L226.691,39.546Z" style="fill:rgb(0,94,171);fill-rule:nonzero;"/>
        <path d="M236.761,41.916C236.336,41.271 235.746,40.822 234.851,40.822C233.47,40.822 232.47,41.872 232.47,43.177C232.47,44.481 233.47,45.532 234.851,45.532C235.714,45.532 236.336,45.097 236.761,44.436L238.14,45.247C237.489,46.267 236.246,47.001 234.851,47.001C232.289,47.001 230.802,45.097 230.802,43.177C230.802,41.257 232.289,39.352 234.851,39.352C236.412,39.352 237.428,40.086 238.14,41.106L236.761,41.916Z" style="fill:rgb(0,94,171);fill-rule:nonzero;"/>
        <path d="M245.22,42.427C244.887,41.316 244.053,40.731 243.052,40.731C242.052,40.731 241.234,41.347 240.976,42.427L245.22,42.427ZM246.676,45.231C245.796,46.327 244.583,46.987 243.265,47.001C240.703,47.001 239.216,45.097 239.216,43.177C239.216,41.257 240.703,39.352 243.265,39.352C244.796,39.352 247.07,40.597 247.07,43.432L247.07,43.717L240.976,43.717C241.066,44.827 242.113,45.622 243.219,45.622C244.068,45.622 244.796,45.217 245.341,44.497L246.676,45.231Z" style="fill:rgb(0,94,171);fill-rule:nonzero;"/>
        <path d="M123.697,8.806L128.021,8.806L133.312,22.085L138.603,8.806L142.925,8.806L133.312,30.972L123.697,8.806Z" style="fill:rgb(35,31,32);fill-rule:nonzero;"/>
        <rect x="144.646" y="13.784" width="3.598" height="16.738" style="fill:rgb(35,31,32);fill-rule:nonzero;"/>
        <path d="M157.732,17.485L164.824,17.485C166.9,17.485 167.625,16.171 167.625,15.063C167.625,13.923 166.9,12.608 164.824,12.608L157.732,12.608L157.732,17.485ZM153.72,21.29L151.126,21.29L151.126,17.485L153.72,17.485L153.72,8.806L164.478,8.806C169.285,8.806 171.636,11.294 171.636,15.063C171.636,18.833 169.285,21.29 164.478,21.29L157.732,21.29L157.732,30.522L153.72,30.522L153.72,21.29Z" style="fill:rgb(35,31,32);fill-rule:nonzero;"/>
        <path d="M179.175,17.485L186.263,17.485C188.339,17.485 189.064,16.171 189.064,15.063C189.064,13.923 188.339,12.608 186.263,12.608L179.175,12.608L179.175,17.485ZM175.164,21.29L172.57,21.29L172.57,17.485L175.164,17.485L175.164,8.806L185.917,8.806C190.724,8.806 193.076,11.294 193.076,15.063C193.076,17.935 191.658,20.632 187.578,21.185L193.353,30.522L188.615,30.522L183.152,21.29L179.175,21.29L179.175,30.522L175.164,30.522L175.164,21.29Z" style="fill:rgb(35,31,32);fill-rule:nonzero;"/>
        <path d="M148.455,11.448L146.449,12.606L144.441,11.448L144.441,9.13L146.449,7.972L148.455,9.13L148.455,11.448Z" style="fill:none;stroke:rgb(0,94,171);stroke-width:0.5px;"/>
        <path d="M144.46,9.112L145.384,9.702L147.513,9.702L148.437,9.112" style="fill:none;stroke:rgb(0,94,171);stroke-width:0.5px;"/>
        <path d="M144.486,11.397L145.353,9.687L146.455,11.542L147.513,9.702L146.439,8.038L145.367,9.665" style="fill:none;stroke:rgb(0,94,171);stroke-width:0.5px;"/>
        <path d="M148.417,11.405L147.55,9.726" style="fill:none;stroke:rgb(0,94,171);stroke-width:0.5px;"/>
        <path d="M146.458,11.628L148.341,11.397" style="fill:none;stroke:rgb(0,94,171);stroke-width:0.5px;"/>
        <path d="M146.449,12.542L146.449,11.616L144.433,11.397" style="fill:none;stroke:rgb(0,94,171);stroke-width:0.5px;"/>
        <path d="M56.072,41.547L32.879,54.936L9.685,41.547L9.685,14.761L32.879,1.376L56.072,14.761L56.072,41.547Z" style="fill:none;stroke:rgb(187,189,192);stroke-width:1.84px;"/>
        <path d="M9.902,14.55L20.58,21.362L45.178,21.362L55.861,14.55" style="fill:none;stroke:rgb(187,189,192);stroke-width:1.84px;"/>
        <path d="M10.195,40.962L20.211,21.195L32.953,42.635L45.178,21.362L32.774,2.128L20.389,20.934" style="fill:none;stroke:rgb(187,189,192);stroke-width:1.84px;"/>
        <path d="M55.619,41.05L45.605,21.634" style="fill:none;stroke:rgb(187,189,192);stroke-width:1.84px;"/>
        <path d="M33.003,43.621L54.745,40.962" style="fill:none;stroke:rgb(187,189,192);stroke-width:1.84px;"/>
        <path d="M32.872,54.188L32.872,43.489L9.6,40.962" style="fill:none;stroke:rgb(187,189,192);stroke-width:1.84px;"/>
        <path d="M65.178,26.317C65.178,37.177 56.373,45.981 45.514,45.981C34.651,45.981 25.847,37.177 25.847,26.317C25.847,15.456 34.651,6.652 45.514,6.652C56.373,6.652 65.178,15.456 65.178,26.317Z" style="fill:rgb(0,94,171);fill-rule:nonzero;"/>
        <path d="M65.178,26.317C65.178,37.177 56.373,45.981 45.514,45.981C34.651,45.981 25.847,37.177 25.847,26.317C25.847,15.456 34.651,6.652 45.514,6.652C56.373,6.652 65.178,15.456 65.178,26.317Z" style="fill:none;stroke:rgb(35,31,32);stroke-width:0.96px;"/>
        <path d="M57.679,33.329L45.537,40.341L33.393,33.329L33.393,19.305L45.537,12.294L57.679,19.305L57.679,33.329Z" style="fill:white;fill-rule:nonzero;"/>
        <path d="M57.679,33.329L45.537,40.341L33.393,33.329L33.393,19.305L45.537,12.294L57.679,19.305L57.679,33.329Z" style="fill:none;stroke:rgb(35,31,32);stroke-width:0.96px;"/>
        <path d="M33.504,19.192L39.097,22.764L51.976,22.764L57.571,19.192" style="fill:none;stroke:rgb(35,31,32);stroke-width:0.96px;"/>
        <path d="M33.659,33.026L38.903,22.673L45.575,33.899L51.976,22.764L45.482,12.69L38.996,22.535" style="fill:none;stroke:rgb(35,31,32);stroke-width:0.96px;"/>
        <path d="M57.444,33.07L52.2,22.903" style="fill:none;stroke:rgb(35,31,32);stroke-width:0.96px;"/>
        <path d="M45.602,34.417L56.985,33.026" style="fill:none;stroke:rgb(35,31,32);stroke-width:0.96px;"/>
        <path d="M45.534,39.948L45.534,34.347L33.347,33.026" style="fill:none;stroke:rgb(35,31,32);stroke-width:0.96px;"/>
        <path d="M40.914,31.894C40.914,43.056 31.865,52.101 20.706,52.101C9.545,52.101 0.495,43.056 0.495,31.894C0.495,20.733 9.545,11.685 20.706,11.685C31.865,11.685 40.914,20.733 40.914,31.894Z" style="fill:rgb(35,31,32);fill-rule:nonzero;"/>
        <path d="M40.914,31.894C40.914,43.056 31.865,52.101 20.706,52.101C9.545,52.101 0.495,43.056 0.495,31.894C0.495,20.733 9.545,11.685 20.706,11.685C31.865,11.685 40.914,20.733 40.914,31.894Z" style="fill:none;stroke:rgb(35,31,32);stroke-width:0.99px;"/>
        <path d="M33.117,31.917C33.117,38.638 27.668,44.083 20.948,44.083C14.226,44.083 8.778,38.638 8.778,31.917C8.778,25.191 14.226,19.745 20.948,19.745C27.668,19.745 33.117,25.191 33.117,31.917Z" style="fill:rgb(0,94,171);fill-rule:nonzero;"/>
        <path d="M33.117,31.917C33.117,38.638 27.668,44.083 20.948,44.083C14.226,44.083 8.778,38.638 8.778,31.917C8.778,25.191 14.226,19.745 20.948,19.745C27.668,19.745 33.117,25.191 33.117,31.917Z" style="fill:none;stroke:white;stroke-width:0.93px;"/>
        <path d="M20.656,16.921L20.656,19.599" style="fill:none;stroke:white;stroke-width:0.93px;"/>
        <path d="M21.96,15.883C21.96,16.602 21.377,17.186 20.656,17.186C19.934,17.186 19.35,16.602 19.35,15.883C19.35,15.163 19.934,14.577 20.656,14.577C21.377,14.577 21.96,15.163 21.96,15.883Z" style="fill:none;stroke:white;stroke-width:0.93px;"/>
        <path d="M24.859,17.806L24.06,20.08" style="fill:none;stroke:white;stroke-width:0.93px;"/>
        <path d="M26.532,16.404C26.532,17.126 25.948,17.712 25.227,17.712C24.506,17.712 23.92,17.126 23.92,16.404C23.92,15.682 24.506,15.1 25.227,15.1C25.948,15.1 26.532,15.682 26.532,16.404Z" style="fill:none;stroke:white;stroke-width:0.93px;"/>
        <path d="M28.548,19.407L26.949,21.435" style="fill:none;stroke:white;stroke-width:0.93px;"/>
        <path d="M30.469,18.19C30.469,18.909 29.884,19.494 29.163,19.494C28.441,19.494 27.857,18.909 27.857,18.19C27.857,17.465 28.441,16.882 29.163,16.882C29.884,16.882 30.469,17.465 30.469,18.19Z" style="fill:none;stroke:white;stroke-width:0.93px;"/>
        <path d="M31.438,21.925L29.839,23.4" style="fill:none;stroke:white;stroke-width:0.93px;"/>
        <path d="M33.849,21.017C33.849,21.739 33.265,22.321 32.543,22.321C31.822,22.321 31.238,21.739 31.238,21.017C31.238,20.294 31.822,19.712 32.543,19.712C33.265,19.712 33.849,20.294 33.849,21.017Z" style="fill:none;stroke:white;stroke-width:0.93px;"/>
        <path d="M33.775,25.062L31.746,25.985" style="fill:none;stroke:white;stroke-width:0.93px;"/>
        <path d="M36.308,24.524C36.308,25.241 35.725,25.829 35.004,25.829C34.281,25.829 33.696,25.241 33.696,24.524C33.696,23.802 34.281,23.217 35.004,23.217C35.725,23.217 36.308,23.802 36.308,24.524Z" style="fill:none;stroke:white;stroke-width:0.93px;"/>
        <path d="M35.127,28.935L32.913,29.304" style="fill:none;stroke:white;stroke-width:0.93px;"/>
        <path d="M37.722,28.516C37.722,29.238 37.137,29.823 36.417,29.823C35.695,29.823 35.113,29.238 35.113,28.516C35.113,27.799 35.695,27.21 36.417,27.21C37.137,27.21 37.722,27.799 37.722,28.516Z" style="fill:none;stroke:white;stroke-width:0.93px;"/>
        <path d="M17.006,17.806L17.806,20.08" style="fill:none;stroke:white;stroke-width:0.93px;"/>
        <path d="M15.333,16.404C15.333,17.126 15.917,17.712 16.64,17.712C17.358,17.712 17.944,17.126 17.944,16.404C17.944,15.682 17.358,15.1 16.64,15.1C15.917,15.1 15.333,15.682 15.333,16.404Z" style="fill:none;stroke:white;stroke-width:0.93px;"/>
        <path d="M13.319,19.407L14.959,21.31" style="fill:none;stroke:white;stroke-width:0.93px;"/>
        <path d="M11.398,18.19C11.398,18.909 11.981,19.494 12.702,19.494C13.422,19.494 14.009,18.909 14.009,18.19C14.009,17.465 13.422,16.882 12.702,16.882C11.981,16.882 11.398,17.465 11.398,18.19Z" style="fill:none;stroke:white;stroke-width:0.93px;"/>
        <path d="M10.427,21.925L12.024,23.4" style="fill:none;stroke:white;stroke-width:0.93px;"/>
        <path d="M8.015,21.017C8.015,21.739 8.599,22.321 9.321,22.321C10.043,22.321 10.627,21.739 10.627,21.017C10.627,20.294 10.043,19.712 9.321,19.712C8.599,19.712 8.015,20.294 8.015,21.017Z" style="fill:none;stroke:white;stroke-width:0.93px;"/>
        <path d="M8.09,25.062L10.119,25.985" style="fill:none;stroke:white;stroke-width:0.93px;"/>
        <path d="M5.557,24.524C5.557,25.241 6.14,25.829 6.863,25.829C7.583,25.829 8.168,25.241 8.168,24.524C8.168,23.802 7.583,23.217 6.863,23.217C6.14,23.217 5.557,23.802 5.557,24.524Z" style="fill:none;stroke:white;stroke-width:0.93px;"/>
        <path d="M6.738,28.935L8.952,29.304" style="fill:none;stroke:white;stroke-width:0.93px;"/>
        <path d="M4.143,28.516C4.143,29.238 4.726,29.823 5.448,29.823C6.169,29.823 6.754,29.238 6.754,28.516C6.754,27.799 6.169,27.21 5.448,27.21C4.726,27.21 4.143,27.799 4.143,28.516Z" style="fill:none;stroke:white;stroke-width:0.93px;"/>
        <path d="M20.656,46.868L20.656,44.19" style="fill:none;stroke:white;stroke-width:0.93px;"/>
        <path d="M21.96,47.906C21.96,47.184 21.377,46.599 20.656,46.599C19.934,46.599 19.35,47.184 19.35,47.906C19.35,48.626 19.934,49.212 20.656,49.212C21.377,49.212 21.96,48.626 21.96,47.906Z" style="fill:none;stroke:white;stroke-width:0.93px;"/>
        <path d="M24.859,45.981L24.06,43.706" style="fill:none;stroke:white;stroke-width:0.93px;"/>
        <path d="M26.532,47.382C26.532,46.659 25.948,46.077 25.227,46.077C24.506,46.077 23.92,46.659 23.92,47.382C23.92,48.104 24.506,48.689 25.227,48.689C25.948,48.689 26.532,48.104 26.532,47.382Z" style="fill:none;stroke:white;stroke-width:0.93px;"/>
        <path d="M28.548,44.382L27.011,42.401" style="fill:none;stroke:white;stroke-width:0.93px;"/>
        <path d="M30.469,45.599C30.469,44.88 29.884,44.292 29.163,44.292C28.441,44.292 27.857,44.88 27.857,45.599C27.857,46.321 28.441,46.903 29.163,46.903C29.884,46.903 30.469,46.321 30.469,45.599Z" style="fill:none;stroke:white;stroke-width:0.93px;"/>
        <path d="M31.438,41.86L29.839,40.386" style="fill:none;stroke:white;stroke-width:0.93px;"/>
        <path d="M33.849,42.77C33.849,42.05 33.265,41.465 32.543,41.465C31.822,41.465 31.238,42.05 31.238,42.77C31.238,43.492 31.822,44.077 32.543,44.077C33.265,44.077 33.849,43.492 33.849,42.77Z" style="fill:none;stroke:white;stroke-width:0.93px;"/>
        <path d="M33.775,38.724L31.746,37.803" style="fill:none;stroke:white;stroke-width:0.93px;"/>
        <path d="M36.308,39.267C36.308,38.545 35.725,37.96 35.004,37.96C34.281,37.96 33.696,38.545 33.696,39.267C33.696,39.987 34.281,40.572 35.004,40.572C35.725,40.572 36.308,39.987 36.308,39.267Z" style="fill:none;stroke:white;stroke-width:0.93px;"/>
        <path d="M35.127,34.852L32.913,34.482" style="fill:none;stroke:white;stroke-width:0.93px;"/>
        <path d="M37.722,35.27C37.722,34.551 37.137,33.966 36.417,33.966C35.695,33.966 35.113,34.551 35.113,35.27C35.113,35.99 35.695,36.575 36.417,36.575C37.137,36.575 37.722,35.99 37.722,35.27Z" style="fill:none;stroke:white;stroke-width:0.93px;"/>
        <path d="M17.006,45.981L17.806,43.706" style="fill:none;stroke:white;stroke-width:0.93px;"/>
        <path d="M15.333,47.382C15.333,46.659 15.917,46.077 16.64,46.077C17.358,46.077 17.944,46.659 17.944,47.382C17.944,48.104 17.358,48.689 16.64,48.689C15.917,48.689 15.333,48.104 15.333,47.382Z" style="fill:none;stroke:white;stroke-width:0.93px;"/>
        <path d="M13.319,44.382L14.899,42.522" style="fill:none;stroke:white;stroke-width:0.93px;"/>
        <path d="M11.398,45.599C11.398,44.88 11.981,44.292 12.702,44.292C13.422,44.292 14.009,44.88 14.009,45.599C14.009,46.321 13.422,46.903 12.702,46.903C11.981,46.903 11.398,46.321 11.398,45.599Z" style="fill:none;stroke:white;stroke-width:0.93px;"/>
        <path d="M10.427,41.86L12.024,40.386" style="fill:none;stroke:white;stroke-width:0.93px;"/>
        <path d="M8.015,42.77C8.015,42.05 8.599,41.465 9.321,41.465C10.043,41.465 10.627,42.05 10.627,42.77C10.627,43.492 10.043,44.077 9.321,44.077C8.599,44.077 8.015,43.492 8.015,42.77Z" style="fill:none;stroke:white;stroke-width:0.93px;"/>
        <path d="M8.09,38.724L10.119,37.803" style="fill:none;stroke:white;stroke-width:0.93px;"/>
        <path d="M5.557,39.267C5.557,38.545 6.14,37.96 6.863,37.96C7.583,37.96 8.168,38.545 8.168,39.267C8.168,39.987 7.583,40.572 6.863,40.572C6.14,40.572 5.557,39.987 5.557,39.267Z" style="fill:none;stroke:white;stroke-width:0.93px;"/>
        <path d="M6.738,34.852L8.952,34.482" style="fill:none;stroke:white;stroke-width:0.93px;"/>
        <path d="M4.143,35.27C4.143,34.551 4.726,33.966 5.448,33.966C6.169,33.966 6.754,34.551 6.754,35.27C6.754,35.99 6.169,36.575 5.448,36.575C4.726,36.575 4.143,35.99 4.143,35.27Z" style="fill:none;stroke:white;stroke-width:0.93px;"/>
        <path d="M5.88,31.741L8.558,31.741" style="fill:none;stroke:white;stroke-width:0.93px;"/>
        <path d="M4.839,30.435C5.559,30.435 6.146,31.02 6.146,31.741C6.146,32.464 5.559,33.046 4.839,33.046C4.118,33.046 3.534,32.464 3.534,31.741C3.534,31.02 4.118,30.435 4.839,30.435Z" style="fill:none;stroke:white;stroke-width:0.93px;"/>
        <path d="M35.531,31.802L32.851,31.802" style="fill:none;stroke:white;stroke-width:0.93px;"/>
        <path d="M36.568,30.496C35.849,30.496 35.264,31.081 35.264,31.802C35.264,32.523 35.849,33.108 36.568,33.108C37.29,33.108 37.875,32.523 37.875,31.802C37.875,31.081 37.29,30.496 36.568,30.496Z" style="fill:none;stroke:white;stroke-width:0.93px;"/>
        <path d="M26.309,25.409C26.309,25.409 15.59,21.643 15.656,26.711C15.72,31.778 30.155,25.409 28.064,31.778C26.634,36.13 15.72,27.101 13.12,31.519C13.12,31.519 13.64,34.183 17.278,34.702C20.917,35.222 31.055,32.881 26.96,38.144C22.864,43.407 11.429,34.834 14.291,36.649" style="fill:none;stroke:white;stroke-width:0.93px;"/>
    </g>
</svg>
